<svg xmlns="http://www.w3.org/2000/svg" width="500.00" height="380.00" viewBox="0 0 500.00 380.00" role="img"><title>Untitled Score</title><desc>1 parts, 1 systems</desc><g class="acorde-score"><g class="acorde-staff"><line class="acorde-staff-line" x1="40.40" y1="240.00" x2="480.00" y2="240.00" stroke="black" stroke-width="1.20"/><line class="acorde-staff-line" x1="40.40" y1="220.00" x2="480.00" y2="220.00" stroke="black" stroke-width="1.20"/><line class="acorde-staff-line" x1="40.40" y1="200.00" x2="480.00" y2="200.00" stroke="black" stroke-width="1.20"/><line class="acorde-staff-line" x1="40.40" y1="180.00" x2="480.00" y2="180.00" stroke="black" stroke-width="1.20"/><line class="acorde-staff-line" x1="40.40" y1="160.00" x2="480.00" y2="160.00" stroke="black" stroke-width="1.20"/></g><g class="acorde-clef acorde-clef-treble"><path class="acorde-clef acorde-clef-treble" d="M 61.40,209.00 C 51.40,208.00 50.40,192.00 61.40,191.00 75.40,190.00 77.40,219.00 60.40,221.00 43.40,222.00 38.40,196.00 51.40,179.00 60.40,167.00 70.40,155.00 68.00,139.00 66.40,126.00 56.40,128.00 54.80,140.00 52.00,158.00 57.40,204.00 62.40,252.00 63.40,265.00 55.40,270.00 50.40,266.00" fill="none" stroke="black" stroke-width="3.80" stroke-linecap="round" stroke-linejoin="round"/><circle cx="52.80" cy="262.40" r="5.40" fill="black"/></g><g class="acorde-time-sig"><path class="acorde-digit" d="M 112.80,197.00 L 112.80,164.00 99.40,186.00 118.80,186.00" fill="none" stroke="black" stroke-width="6.80" stroke-linecap="round" stroke-linejoin="round"/><path class="acorde-digit" d="M 112.80,237.00 L 112.80,204.00 99.40,226.00 118.80,226.00" fill="none" stroke="black" stroke-width="6.80" stroke-linecap="round" stroke-linejoin="round"/></g><g class="acorde-measure"><g class="acorde-note"><ellipse class="acorde-notehead" cx="146.40" cy="190.00" rx="11.20" ry="8.00" transform="rotate(-20 146.40 190.00)" fill="black"/><line class="acorde-stem" x1="136.10" y1="190.00" x2="136.10" y2="260.00" stroke="black" stroke-width="2.20"/></g><g class="acorde-note"><ellipse class="acorde-notehead" cx="199.17" cy="180.00" rx="11.20" ry="8.00" transform="rotate(-20 199.17 180.00)" fill="black"/><line class="acorde-stem" x1="188.86" y1="180.00" x2="188.86" y2="250.00" stroke="black" stroke-width="2.20"/></g><g class="acorde-note"><ellipse class="acorde-notehead" cx="251.93" cy="170.00" rx="11.20" ry="8.00" transform="rotate(-20 251.93 170.00)" fill="black"/><line class="acorde-stem" x1="241.63" y1="170.00" x2="241.63" y2="240.00" stroke="black" stroke-width="2.20"/></g><line class="acorde-tuplet-bracket" x1="146.40" y1="264.00" x2="146.40" y2="276.00" stroke="black" stroke-width="1.80"/><line class="acorde-tuplet-bracket" x1="251.93" y1="264.00" x2="251.93" y2="276.00" stroke="black" stroke-width="1.80"/><line class="acorde-tuplet-bracket" x1="146.40" y1="276.00" x2="179.17" y2="276.00" stroke="black" stroke-width="1.80"/><line class="acorde-tuplet-bracket" x1="219.17" y1="276.00" x2="251.93" y2="276.00" stroke="black" stroke-width="1.80"/><g class="acorde-tuplet-number"><path class="acorde-digit" d="M 193.25,271.71 C 195.59,267.29 203.39,267.55 202.74,272.75 202.35,277.30 198.45,278.60 196.89,278.60 199.75,278.60 203.65,280.55 203.13,284.71 202.74,291.21 194.55,290.95 192.73,286.79" fill="none" stroke="black" stroke-width="4.42" stroke-linecap="round" stroke-linejoin="round"/></g></g><line class="acorde-barline" x1="480.00" y1="160.00" x2="480.00" y2="240.00" stroke="black" stroke-width="1.80"/></g></svg>