<svg xmlns="http://www.w3.org/2000/svg" width="900.00" height="456.00" viewBox="0 0 900.00 456.00"><g class="acorde-score"><g class="acorde-staff"><line class="acorde-staff-line" x1="24.00" y1="288.00" x2="876.00" y2="288.00" stroke="black" stroke-width="1.44"/><line class="acorde-staff-line" x1="24.00" y1="264.00" x2="876.00" y2="264.00" stroke="black" stroke-width="1.44"/><line class="acorde-staff-line" x1="24.00" y1="240.00" x2="876.00" y2="240.00" stroke="black" stroke-width="1.44"/><line class="acorde-staff-line" x1="24.00" y1="216.00" x2="876.00" y2="216.00" stroke="black" stroke-width="1.44"/><line class="acorde-staff-line" x1="24.00" y1="192.00" x2="876.00" y2="192.00" stroke="black" stroke-width="1.44"/></g><path class="acorde-clef acorde-clef-treble" d="M 31.33,304.95 L 32.54,302.62 L 34.32,300.68 L 36.54,299.26 L 39.05,298.47 L 41.68,298.36 L 44.25,298.93 L 46.58,300.14 L 48.52,301.92 L 49.94,304.14 L 50.73,306.65 L 50.84,309.28 L 50.27,311.85 L 49.06,314.18 L 47.28,316.12 L 45.06,317.54 L 42.55,318.33 L 39.92,318.44 L 37.35,317.87 L 35.02,316.66 L 33.08,314.88 L 31.66,312.66 L 30.87,310.15 L 30.76,307.52 L 31.33,304.95 L 50.53,271.44 L 52.34,268.93 L 53.88,265.97 L 55.14,262.63 L 56.07,259.00 L 56.65,255.18 L 56.88,251.24 L 56.74,247.29 L 56.23,243.43 L 55.37,239.75 L 54.19,236.35 L 52.70,233.29 L 50.96,230.67 L 48.99,228.55 L 46.84,226.97 L 44.58,225.98 L 42.26,225.60 L 39.93,225.85 L 37.65,226.70 L 35.48,228.15 L 33.47,230.16 L 31.66,232.67 L 30.12,235.63 L 28.86,238.97 L 27.93,242.60 L 27.35,246.42 L 27.12,250.36 L 27.26,254.31 L 27.77,258.17 L 28.63,261.85 L 29.81,265.25 L 31.30,268.31 L 33.04,270.93 L 35.01,273.05 L 37.16,274.63 L 39.42,275.62 L 41.74,276.00 L 44.07,275.75 L 46.35,274.90 L 48.52,273.45 L 50.53,271.44 L 38.73,177.05 L 38.88,178.95 L 38.67,180.84 L 38.11,182.66 L 37.22,184.34 L 36.03,185.82 L 34.58,187.06 L 32.93,188.00 L 31.12,188.61 L 29.24,188.87 L 27.34,188.77 L 25.49,188.32 L 23.76,187.53 L 22.21,186.43 L 20.89,185.05 L 19.86,183.45 L 19.14,181.69 L 18.77,179.82 L 18.76,177.92 L 19.10,176.05 L 19.79,174.28 L 20.80,172.66 L 22.10,171.27 L 23.63,170.14 L 25.35,169.33" fill="none" stroke="black" stroke-width="3.60" stroke-linecap="round" stroke-linejoin="round"/><g class="acorde-time-sig"><line x1="90.00" y1="198.00" x2="90.00" y2="216.00" stroke="black" stroke-width="3.36" stroke-linecap="square"/><line x1="90.00" y1="216.00" x2="90.00" y2="234.00" stroke="black" stroke-width="3.36" stroke-linecap="square"/><line x1="76.80" y1="198.00" x2="76.80" y2="216.00" stroke="black" stroke-width="3.36" stroke-linecap="square"/><line x1="76.80" y1="216.00" x2="90.00" y2="216.00" stroke="black" stroke-width="3.36" stroke-linecap="square"/><line x1="90.00" y1="246.00" x2="90.00" y2="264.00" stroke="black" stroke-width="3.36" stroke-linecap="square"/><line x1="90.00" y1="264.00" x2="90.00" y2="282.00" stroke="black" stroke-width="3.36" stroke-linecap="square"/><line x1="76.80" y1="246.00" x2="76.80" y2="264.00" stroke="black" stroke-width="3.36" stroke-linecap="square"/><line x1="76.80" y1="264.00" x2="90.00" y2="264.00" stroke="black" stroke-width="3.36" stroke-linecap="square"/></g><g class="acorde-measure" data-acorde-kind="measure" data-part="0" data-staff="0" data-measure="0"><g class="acorde-note" data-acorde-kind="note" data-part="0" data-staff="0" data-measure="0" data-voice="0" data-note="0" data-note-addr="0:0:0:0:0"><line class="acorde-ledger" x1="97.20" y1="312.00" x2="121.20" y2="312.00" stroke="black" stroke-width="2.40"/><ellipse class="acorde-notehead" cx="109.20" cy="312.00" rx="7.44" ry="5.76" fill="black"/><line class="acorde-stem" x1="116.04" y1="312.00" x2="116.04" y2="240.00" stroke="black" stroke-width="2.64"/></g><g class="acorde-note" data-acorde-kind="note" data-part="0" data-staff="0" data-measure="0" data-voice="0" data-note="1" data-note-addr="0:0:0:0:1"><ellipse class="acorde-notehead" cx="199.65" cy="300.00" rx="7.44" ry="5.76" fill="black"/><line class="acorde-stem" x1="206.49" y1="300.00" x2="206.49" y2="228.00" stroke="black" stroke-width="2.64"/></g><g class="acorde-note" data-acorde-kind="note" data-part="0" data-staff="0" data-measure="0" data-voice="0" data-note="2" data-note-addr="0:0:0:0:2"><ellipse class="acorde-notehead" cx="290.10" cy="288.00" rx="7.44" ry="5.76" fill="black"/><line class="acorde-stem" x1="296.94" y1="288.00" x2="296.94" y2="216.00" stroke="black" stroke-width="2.64"/></g><g class="acorde-note" data-acorde-kind="note" data-part="0" data-staff="0" data-measure="0" data-voice="0" data-note="3" data-note-addr="0:0:0:0:3"><ellipse class="acorde-notehead" cx="380.55" cy="276.00" rx="7.44" ry="5.76" fill="black"/><line class="acorde-stem" x1="387.39" y1="276.00" x2="387.39" y2="204.00" stroke="black" stroke-width="2.64"/></g></g><line class="acorde-barline" x1="485.40" y1="192.00" x2="485.40" y2="288.00" stroke="black" stroke-width="2.16"/><g class="acorde-measure" data-acorde-kind="measure" data-part="0" data-staff="0" data-measure="1"><g class="acorde-note" data-acorde-kind="note" data-part="0" data-staff="0" data-measure="1" data-voice="0" data-note="0" data-note-addr="0:0:1:0:0"><ellipse class="acorde-notehead" cx="499.80" cy="264.00" rx="7.44" ry="5.76" fill="none" stroke="black" stroke-width="1.92"/><line class="acorde-stem" x1="506.64" y1="264.00" x2="506.64" y2="192.00" stroke="black" stroke-width="2.64"/></g><g class="acorde-rest" data-acorde-kind="rest" data-part="0" data-staff="0" data-measure="1" data-voice="0" data-note="1" data-note-addr="0:0:1:0:1"><rect x="673.50" y="234.72" width="14.40" height="5.28" fill="black"/></g></g><line class="acorde-barline" x1="876.00" y1="192.00" x2="876.00" y2="288.00" stroke="black" stroke-width="2.16"/></g></svg>
